<?xml version="1.0" standalone="no"?>
<!DOCTYPE svg PUBLIC "-//W3C//DTD SVG 20010904//EN"
 "http://www.w3.org/TR/2001/REC-SVG-20010904/DTD/svg10.dtd">
<svg version="1.0" xmlns="http://www.w3.org/2000/svg"
 width="630.000000pt" height="630.000000pt" viewBox="0 0 630.000000 630.000000"
 preserveAspectRatio="xMidYMid meet">
<metadata>
Created by potrace 1.11, written by Peter Selinger 2001-2013
</metadata>
<g transform="translate(0.000000,630.000000) scale(0.100000,-0.100000)"
fill="#000000" stroke="none">
<path d="M2992 6271 c-22 -17 -43 -40 -47 -53 -12 -39 -46 -108 -55 -108 -4 0
-20 17 -36 38 -43 57 -93 103 -117 108 -12 2 -36 -1 -53 -6 -27 -9 -36 -20
-48 -60 -1 -3 -4 -9 -7 -15 -4 -5 -10 -25 -14 -43 -10 -46 -33 -52 -58 -16
-29 40 -114 124 -126 124 -5 0 -16 2 -24 5 -14 6 -15 2 -18 -50 -1 -14 -7 -25
-14 -25 -26 0 -65 -50 -65 -83 0 -10 -30 -67 -35 -67 -3 0 -20 15 -38 34 -32
32 -86 66 -106 66 -6 0 -14 -12 -17 -26 -4 -17 -11 -23 -22 -19 -8 3 -29 3
-47 -1 -38 -7 -44 -20 -58 -123 -5 -36 -19 -36 -58 -1 -51 45 -97 56 -143 35
-21 -10 -37 -25 -37 -36 -1 -11 -2 -25 -3 -31 -2 -7 4 -28 11 -47 18 -46 24
-99 12 -107 -12 -7 -66 14 -91 35 -9 8 -33 16 -54 18 -20 2 -39 4 -43 5 -16 3
-60 -15 -65 -27 -3 -9 -20 -11 -55 -8 -43 3 -50 2 -45 -11 3 -9 12 -16 20 -16
25 0 29 -3 44 -34 8 -17 21 -38 28 -47 16 -18 66 -138 90 -214 8 -27 17 -54
19 -60 9 -29 44 -163 48 -185 3 -14 7 -36 10 -50 24 -113 29 -201 31 -525 1
-198 4 -378 7 -400 3 -22 8 -58 11 -80 12 -90 26 -224 31 -290 2 -38 7 -83 11
-100 27 -131 25 -153 -10 -178 -47 -33 -60 -49 -67 -85 -1 -4 -6 -18 -11 -32
-16 -41 -17 -56 -7 -96 5 -22 12 -50 15 -64 5 -30 59 -79 94 -86 60 -14 90
-26 84 -36 -8 -12 -8 -443 -1 -455 3 -5 -8 -30 -24 -56 -16 -26 -26 -47 -22
-47 3 0 -1 -8 -10 -17 -8 -10 -17 -29 -19 -43 -2 -19 -10 -26 -30 -28 -16 -2
-28 -8 -28 -13 0 -5 -9 -9 -19 -9 -51 0 -111 -93 -125 -192 -4 -27 -11 -48
-17 -48 -5 0 -9 -7 -9 -15 0 -7 -6 -18 -13 -22 -20 -13 -64 -85 -77 -125 -6
-21 -15 -38 -18 -39 -4 0 -14 -2 -22 -4 -8 -1 -35 -6 -60 -10 -75 -11 -172
-43 -235 -79 -33 -19 -82 -47 -110 -62 -89 -48 -265 -164 -265 -174 0 -4 -18
-19 -39 -33 -57 -38 -214 -198 -259 -263 -31 -47 -51 -79 -50 -84 1 -3 -9 -25
-21 -49 -13 -24 -25 -55 -28 -70 -2 -14 -8 -30 -12 -36 -10 -13 -49 -123 -55
-155 -3 -14 -23 -90 -45 -170 -51 -186 -60 -260 -47 -400 4 -41 11 -91 16
-110 18 -71 21 -98 27 -225 3 -72 6 -138 6 -148 1 -16 106 -17 2097 -15 l2095
3 -1 25 c-4 66 -39 164 -66 181 -5 3 -8 8 -7 10 3 4 -8 22 -59 103 -13 21 -25
44 -26 50 -1 6 -8 22 -16 36 -8 14 -15 27 -15 30 -3 15 -49 101 -56 106 -5 3
-9 14 -9 25 0 10 -4 19 -10 19 -5 0 -9 3 -8 8 3 11 -69 141 -85 153 -4 3 -10
16 -12 30 -3 13 -9 25 -15 27 -5 2 -10 8 -10 14 0 5 -18 30 -39 56 -22 26 -49
68 -60 95 -11 26 -31 58 -43 71 -13 13 -36 40 -53 60 -16 19 -37 36 -45 36 -9
1 -31 34 -52 78 -20 42 -50 91 -65 108 -15 17 -29 38 -31 45 -2 8 -10 21 -18
30 -8 8 -14 20 -14 26 0 6 -10 13 -22 16 -12 4 -19 9 -15 13 3 4 0 18 -7 33
-12 23 -30 97 -39 156 -3 25 -59 158 -69 165 -17 13 -35 78 -31 114 6 55 17
72 71 103 26 15 49 30 52 33 3 3 14 6 25 7 84 10 163 29 183 45 6 6 12 8 12 5
0 -11 103 25 140 48 21 13 41 21 44 18 3 -4 6 -2 6 3 0 5 14 18 31 28 24 14
42 17 92 12 54 -6 80 -12 147 -34 8 -3 22 -6 30 -7 22 -3 82 -14 105 -19 140
-30 176 -37 210 -42 22 -3 56 -9 75 -13 40 -9 372 -6 410 3 14 4 43 9 64 11
21 3 43 8 47 11 5 3 19 7 31 9 13 3 32 9 43 14 11 5 40 16 65 26 25 9 53 21
62 26 10 5 25 9 33 9 8 0 15 5 15 12 0 6 3 8 6 5 4 -4 31 7 60 23 30 16 54 27
54 24 0 -6 60 25 77 40 7 6 27 22 44 36 58 46 104 96 125 139 37 73 18 206
-51 366 -15 33 -43 126 -59 196 -2 8 -11 32 -20 53 -34 82 -25 109 64 198 22
22 40 44 40 48 0 5 6 15 13 22 20 20 67 125 73 163 2 11 3 54 2 95 -2 172 0
193 29 240 16 27 48 109 58 150 1 3 4 12 8 20 24 59 26 114 8 170 -8 25 -7 87
2 126 5 20 -5 120 -18 174 -3 14 -7 39 -10 57 -10 76 -32 136 -65 177 -8 10
-14 20 -12 22 9 14 -56 109 -110 159 -36 33 -103 95 -149 138 -155 143 -271
178 -424 127 -94 -31 -119 -45 -335 -185 -79 -51 -218 -122 -337 -171 -48 -20
-108 -50 -133 -67 -25 -18 -53 -33 -63 -34 -10 -2 -32 -11 -50 -20 -18 -9 -41
-18 -52 -20 -11 -2 -21 -8 -23 -13 -2 -6 -14 -10 -26 -10 -42 0 -59 73 -32
133 8 18 22 53 32 79 11 27 22 48 27 48 4 0 7 7 7 16 0 8 5 12 10 9 6 -3 10 0
10 9 0 8 5 16 11 18 6 2 14 26 16 53 6 64 -20 157 -55 196 -23 25 -35 30 -83
30 -30 1 -64 -1 -75 -5 -28 -9 -57 21 -82 85 -35 92 -92 252 -92 260 0 5 -15
40 -34 79 -19 38 -32 70 -30 70 2 0 -16 39 -40 88 -24 48 -50 106 -57 129 -13
44 -32 62 -85 80 -26 9 -37 8 -63 -8 -55 -33 -63 -27 -82 61 -5 25 -12 67 -15
95 -11 91 -15 95 -88 95 l-64 0 -16 -37 c-45 -102 -62 -133 -72 -133 -15 0
-52 36 -68 68 -14 28 -92 102 -106 102 -4 0 -25 -13 -48 -29z"/>
<path d="M4481 6016 c-18 -6 -44 -25 -57 -41 -13 -17 -29 -37 -37 -45 -87
-102 -84 -381 5 -512 42 -60 68 -73 111 -52 69 33 125 152 160 334 26 142 10
245 -48 303 -31 30 -75 35 -134 13z"/>
</g>
</svg>
